<?xml version="1.0" standalone="no"?>
<!DOCTYPE svg PUBLIC "-//W3C//DTD SVG 20010904//EN"
 "http://www.w3.org/TR/2001/REC-SVG-20010904/DTD/svg10.dtd">
<svg version="1.0" xmlns="http://www.w3.org/2000/svg"
 width="700.000000pt" height="700.000000pt" viewBox="0 0 700.000000 700.000000"
 preserveAspectRatio="xMidYMid meet">
<metadata>
Created by potrace 1.11, written by Peter Selinger 2001-2013
</metadata>
<g transform="translate(0.000000,700.000000) scale(0.100000,-0.100000)"
fill="#000000" stroke="none">
<path d="M3298 6995 c-2 -1 -41 -6 -88 -9 -47 -3 -95 -8 -107 -10 -12 -3 -46
-7 -76 -10 -45 -5 -116 -18 -287 -52 -115 -23 -343 -93 -495 -152 -182 -70
-513 -232 -523 -254 -2 -5 -8 -8 -14 -8 -5 0 -55 -30 -111 -67 -595 -390
-1013 -885 -1310 -1553 -67 -151 -176 -487 -201 -620 -2 -14 -9 -47 -15 -74
-7 -27 -13 -61 -15 -75 -2 -14 -9 -60 -15 -101 -7 -41 -14 -88 -16 -105 -26
-185 -26 -653 -1 -805 3 -14 7 -47 11 -75 46 -383 215 -881 423 -1250 43 -76
209 -334 221 -345 3 -3 25 -30 48 -61 119 -161 286 -338 489 -520 64 -58 250
-197 354 -265 356 -233 772 -410 1179 -500 83 -18 286 -53 346 -59 39 -4 84
-9 100 -11 17 -2 117 -7 223 -10 l192 -6 0 1696 0 1696 1696 0 1697 0 -7 193
c-4 105 -8 206 -10 222 -2 17 -7 62 -11 100 -4 39 -9 79 -11 90 -2 11 -6 34
-9 50 -3 17 -7 41 -10 55 -3 14 -7 40 -10 57 -18 110 -74 318 -127 473 -106
306 -255 604 -430 857 -29 41 -60 85 -68 97 -16 24 -78 103 -95 122 -5 7 -19
22 -29 35 -109 133 -241 268 -411 418 -87 77 -313 240 -440 318 -332 203 -741
367 -1100 442 -87 18 -128 25 -247 46 -21 3 -51 7 -183 21 -47 6 -502 13 -507
9z"/>
</g>
</svg>
